<svg width="800" height="600" xmlns="http://www.w3.org/2000/svg">
  <rect width="800" height="600" fill="white" />
  <rect x="0" y="0" width="800" height="600" stroke="none" fill="#ffffff" stroke-width="2"  />
  <text x="50" y="40" font-size="40" fill="#2d3436" font-family="Arial, sans-serif">Architecture Flow</text>
  <rect x="50" y="200" width="150" height="100" stroke="black" fill="#ffeaa7" stroke-width="2"  />
  <text x="80" y="240" font-size="20" fill="black" font-family="Arial, sans-serif">Input File</text>
  <text x="90" y="265" font-size="14" fill="grey" font-family="Arial, sans-serif">(.txt)</text>
  <line x1="200" y1="250" x2="250" y2="250" stroke="black" stroke-width="3" />
  <rect x="250" y="200" width="150" height="100" stroke="black" fill="#81ecec" stroke-width="2"  />
  <text x="290" y="240" font-size="20" fill="black" font-family="Arial, sans-serif">Parser</text>
  <text x="280" y="265" font-size="14" fill="grey" font-family="Arial, sans-serif">& Lexer</text>
  <line x1="400" y1="250" x2="450" y2="250" stroke="black" stroke-width="3" />
  <rect x="450" y="200" width="150" height="100" stroke="black" fill="#74b9ff" stroke-width="2"  />
  <text x="490" y="240" font-size="20" fill="black" font-family="Arial, sans-serif">Core</text>
  <text x="470" y="265" font-size="14" fill="grey" font-family="Arial, sans-serif">Presentation</text>
  <line x1="600" y1="250" x2="650" y2="250" stroke="black" stroke-width="3" />
  <rect x="650" y="200" width="100" height="100" stroke="black" fill="#55efc4" stroke-width="2"  />
  <text x="670" y="240" font-size="20" fill="black" font-family="Arial, sans-serif">HTML</text>
  <text x="675" y="265" font-size="14" fill="grey" font-family="Arial, sans-serif">SVG</text>
  <rect x="50" y="500" width="700" height="60" stroke="none" fill="#f1f2f6" stroke-width="2"  />
  <text x="70" y="520" font-size="18" fill="#636e72" font-family="Arial, sans-serif">The data flows linearly from text to objects, then to export formats.</text>
</svg>
